<svg xmlns="http://www.w3.org/2000/svg" version="1.1" xmlns:xlink="http://www.w3.org/1999/xlink" xmlns:svgjs="http://svgjs.dev/svgjs" width="1000" height="1000" viewBox="0 0 1000 1000"><rect width="1000" height="1000" fill="#ffffff"></rect><g transform="matrix(0.3260363297624592,0,0,0.3260363297624592,336.8576738585402,150.28340080971657)"><svg viewBox="0 0 115 247" data-background-color="#ffffff" preserveAspectRatio="xMidYMid meet" height="2147" width="1000" xmlns="http://www.w3.org/2000/svg" xmlns:xlink="http://www.w3.org/1999/xlink"><g id="tight-bounds" transform="matrix(1,0,0,1,0.043794337081635604,-0.09999999999999432)"><svg viewBox="0 0 114.91241132583674 247.2" height="247.2" width="114.91241132583674"><g><svg viewBox="0 0 172.36425031712474 370.7906064" height="247.2" width="114.91241132583674"><g><svg viewBox="0 0 172.36425031712474 370.7906064" height="370.7906064" width="172.36425031712474"><g id="textblocktransform"><svg viewBox="0 0 172.36425031712474 370.7906064" height="370.7906064" width="172.36425031712474" id="textblock"><g><rect width="172.36425031712474" height="247.2" fill="none" stroke-width="9.018103199999999" stroke="#ff0000" data-fill-palette-color="none" data-stroke-palette-color="tertiary"></rect><rect width="172.36425031712474" height="123.5906064" y="247.2" fill="#ff0000" data-fill-palette-color="tertiary"></rect></g><g><svg viewBox="0 0 172.36425031712474 247.2" height="247.2" width="172.36425031712474"><g transform="matrix(1,0,0,1,23.607599999999998,23.607599999999998)"><svg width="125.14905031712475" viewBox="1.6 -23.25 14.799999999999999 23.65" height="199.9848" data-palette-color="#ff0000"><g class="wordmark-text-0" data-fill-palette-color="primary" id="text-0"><path d="M10.25-23.25Q13.1-23.25 15.75-22.15L15.75-22.15 15.2-18.9 14.6-18.75Q12.1-20.4 9.8-20.4L9.8-20.4Q8.1-20.4 7.05-19.45 6-18.5 6-17.15L6-17.15Q6-15.8 7.08-14.98 8.15-14.15 10.4-13.1L10.4-13.1Q12.35-12.2 13.53-11.48 14.7-10.75 15.55-9.55 16.4-8.35 16.4-6.6L16.4-6.6Q16.4-4.75 15.45-3.15 14.5-1.55 12.65-0.58 10.8 0.4 8.25 0.4L8.25 0.4Q4.75 0.4 1.6-1.25L1.6-1.25 2.1-4.65 2.55-4.95Q3.95-3.75 5.58-3.1 7.2-2.45 8.65-2.45L8.65-2.45Q10.5-2.45 11.65-3.48 12.8-4.5 12.8-5.9L12.8-5.9Q12.8-7.25 11.73-8.08 10.65-8.9 8.4-9.95L8.4-9.95Q6.45-10.85 5.25-11.58 4.05-12.3 3.2-13.55 2.35-14.8 2.35-16.65L2.35-16.65Q2.35-19.55 4.48-21.4 6.6-23.25 10.25-23.25L10.25-23.25Z" fill="#ff0000" data-fill-palette-color="primary"></path></g></svg></g></svg></g></svg></g></svg></g><g></g></svg></g><defs></defs></svg><rect width="114.91241132583674" height="247.2" fill="none" stroke="none" visibility="hidden"></rect></g></svg></g></svg>